<svg width="19" height="20" viewBox="0 0 19 20" fill="none" xmlns="http://www.w3.org/2000/svg">
<g clip-path="url(#clip0_67_180)">
<path d="M8.40626 5.57929H10.2395V7.41257H8.40626V5.57929ZM8.40626 9.24586H10.2395V14.7457H8.40626V9.24586ZM9.3229 0.996094C4.26304 0.996094 0.156494 5.10264 0.156494 10.1625C0.156494 15.2223 4.26304 19.3289 9.3229 19.3289C14.3827 19.3289 18.4893 15.2223 18.4893 10.1625C18.4893 5.10264 14.3827 0.996094 9.3229 0.996094ZM9.3229 17.4956C5.28051 17.4956 1.98977 14.2049 1.98977 10.1625C1.98977 6.12011 5.28051 2.82937 9.3229 2.82937C13.3653 2.82937 16.656 6.12011 16.656 10.1625C16.656 14.2049 13.3653 17.4956 9.3229 17.4956Z" fill="#C9C9C9"/>
</g>
<defs>
<clipPath id="clip0_67_180">
<rect width="18.3328" height="18.3328" fill="white" transform="translate(0.156494 0.996094)"/>
</clipPath>
</defs>
</svg>
